<?xml version="1.0" encoding="iso-8859-1"?>
<!-- Uploaded to: SVG Repo, www.svgrepo.com, Generator: SVG Repo Mixer Tools -->
<svg height="inherit" width="inherit" version="1.1" id="Layer_1" xmlns="http://www.w3.org/2000/svg" xmlns:xlink="http://www.w3.org/1999/xlink" 
	 viewBox="0 0 498.894 498.894" xml:space="preserve">
<path style="fill:#9165B7;" d="M490.065,426.205c-5.968,15.376-29.176,44.2-45.392,56.512
	c-14.688,11.12-25.072,15.384-38.792,16.032c-11.288,0.552-15.968-0.408-30.4-6.368c-113.216-46.616-203.608-116.176-275.392-211.76
	c-37.48-49.912-66.024-101.68-85.528-155.384C3.185,93.909,2.625,80.309,11.969,64.277c4.04-6.752,21.224-23.496,33.696-32.832
	C66.489,15.981,76.073,10.261,83.737,8.661c5.24-1.136,14.36-0.256,20.168,1.84c2.824,0.968,7.168,3.232,9.672,4.832
	c15.328,10.152,57.976,64.664,71.92,91.864c7.976,15.544,10.648,27.056,8.152,35.592c-2.568,9.176-6.848,14-25.96,29.384
	c-7.664,6.192-14.84,12.56-15.968,14.248c-2.912,4.184-5.256,12.392-5.256,18.192c0.104,13.456,8.816,37.84,20.256,56.608
	c8.864,14.568,24.76,33.248,40.488,47.592c18.464,16.896,34.752,28.408,53.136,37.512c23.632,11.752,38.064,14.728,48.624,9.816
	c2.664-1.2,5.488-2.816,6.376-3.536c0.816-0.728,7.016-8.296,13.8-16.672c13.064-16.424,16.032-19.08,24.984-22.144
	c11.368-3.856,22.968-2.816,34.672,3.144c8.88,4.592,28.232,16.584,40.728,25.28c16.44,11.512,51.624,40.176,56.368,45.888
	C494.273,398.421,495.697,411.637,490.065,426.205z"/>
<path style="fill:#7B509C;" d="M485.881,388.109c-4.744-5.712-39.928-34.368-56.368-45.888c-12.496-8.696-31.84-20.688-40.728-25.28
	c-11.704-5.96-23.304-7-34.672-3.144c-8.952,3.064-11.92,5.72-24.984,22.144c-6.784,8.376-12.984,15.944-13.8,16.672
	c-0.888,0.72-3.712,2.336-6.376,3.536c-10.56,4.912-24.992,1.936-48.624-9.816c-18.384-9.104-34.672-20.616-53.136-37.512
	c-15.728-14.344-31.616-33.024-40.488-47.592c-11.448-18.768-20.16-43.16-20.256-56.608c0-5.8,2.344-14,5.256-18.192
	c0.456-0.688,1.912-2.152,3.992-4.032c-28.464,17.072-62.64,27.04-99.416,27.04c-0.944,0-1.88-0.064-2.832-0.08
	c13.616,24.168,29.112,47.928,46.632,71.272c71.784,95.584,162.168,165.144,275.392,211.76c14.432,5.96,19.112,6.928,30.4,6.368
	c13.72-0.656,24.104-4.92,38.792-16.032c16.208-12.312,39.424-41.136,45.392-56.512
	C495.697,411.637,494.273,398.421,485.881,388.109z"/>
<path style="fill:#9165B7;" d="M246.225,3.653c3.8-3.456,6.456-3.944,19.6-3.528c6.84,0.24,16.928,1.04,22.424,1.68
	c27.728,3.464,50.144,10.144,74.736,22.144c24.2,11.832,39.68,23.024,60.168,43.4c19.192,19.232,29.824,33.824,41.12,56.448
	c15.728,31.552,24.688,69.072,26.208,110.384c0.552,14.088,0.168,17.232-3.064,21.256c-6.136,7.808-19.576,6.512-24.176-2.256
	c-1.464-2.896-1.864-5.392-2.344-16.672c-0.824-17.304-2.024-28.496-4.432-41.864c-9.512-52.416-34.68-94.288-74.832-124.32
	c-33.472-25.12-68.064-37.36-113.376-40.016c-15.32-0.88-18-1.448-21.456-4.104C240.337,21.125,240.017,9.213,246.225,3.653z"/>
<path style="fill:#7B509C;" d="M342.337,107.365c-16.208-9.664-40.168-16.84-62.008-18.608c-7.904-0.64-12.256-2.256-15.24-5.72
	c-4.584-5.232-5.08-12.32-1.192-18.192c4.176-6.52,10.624-7.576,29.904-4.672c48.936,7.168,86.848,29.872,111.688,66.752
	c13.952,20.768,22.648,45.168,25.648,71.336c1.04,9.584,1.04,27.056-0.088,29.952c-1.064,2.736-4.448,6.448-7.352,7.976
	c-3.136,1.608-9.832,1.456-13.528-0.488c-6.208-3.136-8.064-8.128-8.064-21.656c0-20.856-5.408-42.84-14.76-59.904
	C376.689,134.653,361.233,118.557,342.337,107.365z"/>
<g>
	<path style="fill:#5F3882;" d="M369.609,214.685c-4.768,4.352-13.544,4.512-18.88,0.4c-3.848-2.896-5.08-5.96-5.96-14.248
		c-1.064-11.032-2.984-18.76-6.296-25.92c-7.104-15.224-19.584-23.112-40.704-25.696c-9.928-1.2-12.904-2.328-16.144-6.112
		c-5.88-7.008-3.616-18.36,4.52-22.544c3.064-1.52,4.352-1.696,11.12-1.288c4.2,0.24,10.408,0.968,13.72,1.688
		c15.888,3.384,28.048,9.416,38.456,19.168c13.392,12.648,20.736,27.944,23.952,49.92
		C375.561,204.381,374.665,210.021,369.609,214.685z"/>
	<path style="fill:#5F3882;" d="M485.881,388.109c-4.744-5.712-39.928-34.368-56.368-45.888
		c-12.496-8.696-31.84-20.688-40.728-25.28c-11.704-5.96-23.304-7-34.672-3.144c-8.952,3.064-11.92,5.72-24.984,22.144
		c-6.784,8.376-12.984,15.944-13.8,16.672c-0.84,0.688-3.456,2.168-6.008,3.352c-20.016,24.112-43.592,44.96-69.976,61.568
		c41.232,29.536,86.488,54.4,136.144,74.84c14.432,5.96,19.112,6.928,30.4,6.368c13.72-0.656,24.104-4.92,38.792-16.032
		c16.208-12.312,39.424-41.136,45.392-56.512C495.697,411.637,494.273,398.421,485.881,388.109z"/>
</g>
</svg>
